<?xml version="1.0" encoding="utf-8"?>
<!-- Generator: Adobe Illustrator 20.1.0, SVG Export Plug-In . SVG Version: 6.00 Build 0)  -->
<svg version="1.1" id="Calque_1" xmlns="http://www.w3.org/2000/svg" xmlns:xlink="http://www.w3.org/1999/xlink" x="0px" y="0px"
	 viewBox="0 0 432 432" style="enable-background:new 0 0 432 432;" xml:space="preserve">
<style type="text/css">
	.st0{fill:#E30613;}
	.st1{fill:#CB9A3E;}
	.st2{fill:#008D36;}
	.st3{fill:#D31C17;}
	.st4{fill:#E3E2E2;}
	.st5{fill:none;}
	.st6{fill:#3AAA35;}
	.st7{fill:#C9973C;}
	.st8{fill:#CC7B26;}
	.st9{fill:#432918;}
	.st10{fill:#936037;}
	.st11{fill:#B17F4A;}
	.st12{fill:#FFFFFF;}
	.st13{fill:#E7323B;}
	.st14{fill:#382C23;}
	.st15{fill:#020203;}
	.st16{fill:#F8AC14;}
	.st17{fill-rule:evenodd;clip-rule:evenodd;fill:#F8AC14;}
	.st18{fill-rule:evenodd;clip-rule:evenodd;fill:#CB9A3E;}
	.st19{fill-rule:evenodd;clip-rule:evenodd;fill:#C9973C;}
	.st20{fill:#D82116;}
	.st21{fill:#CF7913;}
	.st22{fill:#BDBABA;}
	.st23{fill:#13110C;}
	.st24{fill-rule:evenodd;clip-rule:evenodd;}
	.st25{fill-rule:evenodd;clip-rule:evenodd;fill:#008D36;}
	.st26{fill:#36A9E1;}
	.st27{fill:#E8E8E8;}
	.st28{fill:#030304;}
	.st29{fill:#ED6F2D;}
	.st30{fill:#2D8535;}
	.st31{fill:#442A19;}
</style>
<g>
	<g>
		<g>
			<path d="M105.6,124.6l-2.1,67.8l-0.3,0.3c-20.9-62.4-22-64.8-22.7-67.4l-0.3-0.3h-1.5c-2.4,0-7.9-0.3-10.3-0.3h-3l-0.6,86.7v2.8
				c1.5,0,9.8-0.1,11.1-0.1c0.6,0,3.1-0.2,3.7-0.3l-0.9-50.3l0.2-0.3c0.1,0.1,0.3,0.6,0.3,0.6c16.3,44.9,18.1,48.8,18.1,49.4
				l0.3,0.4c8.4,0,19.6-0.9,19.6-0.9l2.1-87.3c-1.9-0.2-10.8-1-12.7-1.3C106.3,124,105.6,124.4,105.6,124.6z"/>
			<path d="M173.9,198.1l-29.5-0.3l-0.3-19.9l0.3-0.2h14.5v-14.4l-0.3-0.3c-3.1-0.1-11.1,0-13.8-0.6l-0.3-0.3l0.7-22
				c0-0.4,0.2-0.6,0.6-0.6c8,0,16,0.3,24,0.3h1.1l0.3-0.3c0-13,0-13.5-0.3-13.7h-39c-0.3,7.6-1.1,58.2-1.1,78.3
				c0,3.6,0.1,6.2,0.1,7.4c0.1,0.6,0.4,0.6,0.8,0.6h0.4l41.2,0.5h0.4c0.4,0,0.7,0,0.9-0.6v-1.5c0-3.7,0.3-7.3,0.3-11.1
				C174.8,198.8,174.8,198.1,173.9,198.1z"/>
			<path d="M240.6,128.2l-6.6,60.9c-4.7-13.1-9-24.1-13.1-36.9l-15,2.6l-7.2,28.6l-1.1-58.1l-16.8,0.8l6.5,84.3l18.6,2.6l9-39.2
				l13.6,37.5l18.2-1.3l0.6-0.3l9.4-81.3H240.6z"/>
		</g>
	</g>
	<g>
		<path class="st1" d="M209.6,227.6c-0.3,0-0.9,0-0.9,0l-0.3,0.3c-9.9,15.4-15.3,24.2-17.1,26.8c0,0-0.2,0.2-0.3,0.3l-17.4-29.9
			c-0.1-0.7-0.7-0.7-1.2-0.7l-12.8,5.6c0,0.5,0,0.6,0.4,1l21.3,33.6c0.6,1.3,0.8,2.2,0.8,3.6c0,11.1-0.8,22.2-0.8,33.4
			c0,0.6,0.5,0.9,1.1,0.9c3.7,0,7.4-0.5,11.2-0.5h1.6l0.3-0.3l1.7-34.7l22-33.8C219,231.7,210.9,227.7,209.6,227.6z"/>
		<path class="st1" d="M260.5,290.9l-25.5-0.3l-0.3-17.2l0.3-0.2h12.5v-12.4l-0.3-0.3c-2.7-0.1-9.6,0-11.9-0.5l-0.3-0.3l0.6-19
			c0-0.4,0.2-0.5,0.5-0.5c6.9,0,13.9,0.3,20.8,0.3h1l0.3-0.3c0-11.3,0-11.6-0.3-11.8H224c-0.3,6.6-1,50.3-1,67.7
			c0,3.1,0.1,5.3,0.1,6.4c0.1,0.5,0.4,0.5,0.7,0.5h0.4l35.6,0.4h0.4c0.4,0,0.6,0,0.8-0.5v-1.3c0-3.2,0.3-6.3,0.3-9.6
			C261.3,291.5,261.3,290.9,260.5,290.9z"/>
		<path class="st1" d="M293.7,225.8c-19.4,0-21,16.9-22.6,32.5l-1.6,45.5c3.3,0,8.9-0.1,12.2-0.4l1.1-26l16,0.2
			c0,10.8-0.5,24.9-0.5,24.9l0.4,0.3l11-0.6c0.3,0,0.4-0.7,0.4-0.8v-2.6c0-16,0.4-33.2,0.4-48.1
			C310.3,241.4,306.5,225.8,293.7,225.8z M298.5,265.9c0,0.5-0.2,1.2-0.7,1.5c-8.1,0-11.4-0.4-15.3-0.6c-0.4-0.1-0.5-0.7-0.5-1.3
			v-0.8c0-12.3,0-26.4,9.3-26.4h0.9c5.6,0.5,6.4,4.2,6.4,14.3C298.6,256.2,298.5,260.5,298.5,265.9z"/>
		<path class="st1" d="M369,245.1V244c0-14-14-17.6-28.1-17.6c-6.9,0-13.9,0.9-19.2,1.8c-1,0.4-1.6,1.2-1.6,2l0.6,70.5l12.2-0.6
			l-0.2-30.7l0.4-0.6c10,16,16.3,23.9,21.2,30.9c0.1,0,0.7-0.2,0.7-0.3l10-3.4c0.3-0.1,0.3-0.2,0.3-0.5l-21.9-32.8
			C355.7,260.5,368.2,257.4,369,245.1z M356.2,243.6c-0.3,5.3-6.4,11.2-19.5,11.2c-0.8,0-1.6-0.1-2.4-0.1l-1.2-0.1
			c-0.7-0.3-0.8-1-0.8-1.5l-0.4-14.3l0.1-1.4l0.3-0.5l2.4-0.3c0.2,0,0.4-0.1,0.6-0.1c2.7-0.3,5.9-0.6,9-0.6c6.2,0,11.8,1.3,11.8,6.7
			V243.6z"/>
	</g>
	<g>
		<path class="st7" d="M104.7,255.7c1.3-0.3,2.7,0.3,3.9,0.9c1.3,0.7,3,2,3.9,3.2c1.8,2.4,3.3,5.1,4.1,7.9c0,0,0,0,0,0
			c-1-2.6-2.6-4.9-4.9-6.5c-1.1-0.8-2.2-1.6-3.4-2.4c-1.2-0.7-2.6-0.9-3.6-1.9C104.3,256.7,104.1,255.9,104.7,255.7z"/>
		<path class="st7" d="M95.5,243.4c0.9-0.9,2-0.7,3.2-0.3c1.2,0.4,2.4,1,3.4,1.7c2,1.5,4,3,5.6,4.9c1.5,1.7,3.1,3.5,4.3,5.5
			c1.3,2,2.2,4,3.2,6.1c0,0.1,0,0.1-0.1,0c-0.5-0.9-0.9-1.8-1.5-2.6c-0.6-1-1.4-1.8-2.2-2.7c-3.2-3.7-7-6.1-11.5-8
			C98.8,247.6,93.1,245.7,95.5,243.4z"/>
		<path class="st7" d="M105.1,230.3c2.6,0.1,4.6,2.8,6,4.7c1.6,2.2,2.4,4.8,3,7.4c1.2,5.2,2.2,10.5,1.8,15.9c0,0-0.1,0-0.1,0
			c-0.2-5.2-2-10.3-4.2-15c-1-2.1-2.1-4.2-3.5-6c-1.3-1.8-3.4-3.3-4.1-5.5C103.9,231.1,104.4,230.3,105.1,230.3z"/>
		<path class="st7" d="M94.5,234.2c1.3-1.1,3.1-0.3,4.4,0.5c1.6,0.9,3.1,2.1,4.4,3.4c1.1,1.1,2,2.4,2.8,3.8c0.4,0.6,0.7,1.3,1.1,1.9
			c0.3,0.7,0.8,1.2,1.1,1.9c0,0.1-0.1,0.1-0.1,0c-0.6-1.1-1.9-2.2-2.9-3c-1.1-0.9-2.3-1.7-3.5-2.4c-1.3-0.8-2.6-1.5-3.9-2.2
			c-1.4-0.7-2.7-1.1-3.5-2.6C94,235.1,94.1,234.6,94.5,234.2z"/>
		<path class="st7" d="M76.9,247.9c1.7-1.6,3.8-1.6,6-1.5c2.4,0.1,5,0.6,7.3,1.3c2.3,0.7,4.6,1.8,6.7,2.9c0.7,0.4,1.5,0.7,2.2,1.2
			c0.1,0.1,0.2,0.1,0.2,0.2c0.4,0.3,0.8,0.7,1.2,1c-0.4-0.1-0.8-0.2-1.2-0.4c-1-0.4-2-0.7-3-0.9c-3-0.8-6-1.2-9.1-1.5
			c-3.4-0.3-6.7,0-10-1.1C76.9,249,76.5,248.3,76.9,247.9z"/>
		<path class="st7" d="M71.9,257.6c3-1.3,6.4-2.4,9.7-2.6c3.5-0.3,7.1,0.3,10.5,0.9c3.4,0.6,6.5,1.6,9.6,3.2c3,1.6,5.6,3.7,8.4,5.7
			c0,0,0,0.1,0,0.1c-3.5-2-6.7-3.6-10.6-4.5c-5.5-1.3-11.4-2.1-17.1-2.1c-3.4,0-6.7,0.1-10.1,0.3C71.7,258.6,71.3,257.8,71.9,257.6z
			"/>
		<path class="st7" d="M121.5,243c0.6-3.3,1.7-6.1,3.1-9.1c1.4-3,3.4-5.7,5.6-8.1c1-1.1,2.2-2,3.4-2.9c1.3-1,2.7-1.4,4.3-1.4
			c0.6,0,1.1,0.8,0.6,1.3c-1,0.8-2,1.7-3.1,2.5c-1.2,0.9-2.4,1.9-3.4,3c-2.1,2.3-3.6,4.8-5.2,7.5c-2.9,5.2-5.6,10.8-6.3,16.8
			c0,0.1-0.1,0-0.1,0C120.4,249.3,121,246.1,121.5,243z"/>
		<path class="st7" d="M117.5,229.8c0.4-0.2,0.9,0.1,1.1,0.4c1.2,1.5,0.7,3.6,0.6,5.3c0,0.4-0.2,0.8-0.2,1.2c0,0.5-0.1,1-0.2,1.5
			c-0.1,0.9-0.2,1.8-0.3,2.7c-0.4,3.8-0.6,7.5-0.3,11.3c0,0.1-0.1,0.1-0.2,0c-0.8-3.9-1.3-7.9-1.9-11.9c-0.1-0.9-0.2-1.8-0.3-2.8
			c0-0.4-0.1-0.8-0.1-1.2c0-0.5-0.2-1.1-0.1-1.6C115.7,233.1,115.7,230.5,117.5,229.8z"/>
		<path class="st7" d="M112.3,231.7c-0.1-0.2-0.2-0.5-0.3-0.7c0-0.2-0.1-0.4-0.1-0.5c-0.2-1-0.5-1.9-0.7-2.9
			c-0.3-1.5-0.6-4.2,1.6-4.3c0.4,0,0.9,0.3,1,0.7c0.4,1.3,0,2.5-0.4,3.7C112.9,228.8,112.1,230.5,112.3,231.7z"/>
		<path class="st7" d="M121.1,255.6c0.1-0.9,0.2-1.8,0.4-2.7c0.4-2.1,1.3-3.9,2.2-5.8c0.9-1.8,2-3.4,3.3-5c1.3-1.7,2.6-3.1,4.5-4.1
			c0.5-0.3,0.9,0.5,0.7,0.9c-1.8,3.4-4.6,6-6.5,9.4c-0.9,1.6-1.7,3.2-2.6,4.8c-0.9,1.6-2,3.2-2.3,5c0,0.1-0.2,0-0.2-0.1
			C120.7,257.3,120.9,256.5,121.1,255.6z"/>
		<path class="st7" d="M129.6,233.8c0.7-0.9,1.4-1.8,2.6-1.6c0.5,0.1,0.8,0.7,0.7,1.1c-0.4,2-3.4,1.8-4.4,3.3c0,0-0.1,0-0.1,0
			C128.6,235.5,129,234.6,129.6,233.8z"/>
		<path class="st7" d="M131.6,250.2c0.6-0.3,1,0.6,0.6,1c-2.2,2.3-4.5,4.5-6.5,7.1c-1,1.3-2,2.6-2.8,4c-0.9,1.4-1.9,2.8-2.6,4.3
			c0,0.1-0.2,0-0.2-0.1C120.5,259.7,125.3,253,131.6,250.2z"/>
		<path class="st7" d="M127.2,250c1.1-3.3,3.3-5.9,6-8.1c2.6-2.2,6.3-5.3,10-4.2c0.6,0.2,1.1,0.9,0.7,1.5c-0.8,1.4-2.4,1.9-3.8,2.4
			c-1.6,0.6-3.1,1.6-4.6,2.6c-1.4,0.9-2.9,1.8-4.3,2.7c-1.4,1-2.8,1.8-3.8,3.2C127.3,250.2,127.2,250.1,127.2,250z"/>
		<path class="st7" d="M117.4,258.1c0.1-0.4,0.7-0.2,0.8,0.1c0.5,1.3,0.5,2.6,0.6,4c0,0.7-0.1,1.5-0.2,2.1c-0.1,0.6-0.4,1.4-0.3,2
			c0,0.1-0.2,0.2-0.2,0.1c-0.2-0.3-0.2-0.6-0.2-0.9c-0.1-0.9-0.2-1.8-0.3-2.7C117.3,261.2,117.1,259.6,117.4,258.1z"/>
		<path class="st7" d="M121.7,267.1c0.3-0.6,0.6-1.1,0.9-1.7c0.3-0.6,0.9-1.2,1.3-1.8c0.8-1.1,1.6-2.2,2.5-3.2
			c1.9-2.2,4.2-4,6.5-5.7c4.4-3.1,9.8-6.5,15.4-6.2c0.4,0,1.1,0.8,0.5,1.1c-1,0.6-2,1-3.1,1.4c-1.3,0.6-2.5,1.2-3.8,1.7
			c-2.6,1-5.1,2.6-7.5,4.1c-2.3,1.4-4.5,3-6.6,4.7c-1,0.8-2,1.7-3.1,2.6C123.7,265.1,122.8,266.1,121.7,267.1
			C121.8,267.3,121.7,267.2,121.7,267.1z"/>
		<path class="st7" d="M135.6,248.9c0.9-1.1,2.1-1.9,3.2-2.7c1.4-1.1,2.9-2,4.4-3c1.5-0.9,3.1-1.7,4.7-2.4c1.6-0.7,3.3-1.4,5.1-0.8
			c0.4,0.1,1,0.9,0.4,1.3c-1.3,0.8-2.7,1.1-4.1,1.6c-1.6,0.6-3.2,1.2-4.7,1.8c-1.5,0.6-3.1,1.3-4.6,2c-1.4,0.7-3,1.3-4.2,2.3
			C135.6,249.2,135.5,249,135.6,248.9z"/>
		<path class="st7" d="M123.2,267.7c0.5-0.9,1.4-1.6,2.3-2.2c1.2-0.8,2.6-1.5,3.9-2.2c1.4-0.7,3.1-1,4.6-1.3
			c1.1-0.3,2.7-0.7,3.7-0.1c0.4,0.2,0.8,1,0.3,1.4c-0.8,0.6-2.2,0.4-3.2,0.6c-1.4,0.3-2.9,0.7-4.3,1.1c-1.3,0.4-2.5,0.7-3.8,1.3
			c-0.6,0.3-1.1,0.6-1.7,0.8C124.5,267.1,123.8,267.4,123.2,267.7C123.2,267.8,123.2,267.7,123.2,267.7z"/>
		<path class="st7" d="M141.3,261.4c1.7-0.3,3.4-0.7,5.2-0.9c1.8-0.2,3.6-0.4,5.3-0.5c3.5-0.2,7.4,0.2,10.3,2.3
			c0.5,0.4,0.6,1.6-0.3,1.6c-1.7,0-3.1-0.7-4.7-1.1c-1.7-0.5-3.4-0.9-5.1-1.1c-1.8-0.2-3.5-0.3-5.3-0.3
			C144.9,261.3,143.1,261.5,141.3,261.4C141.3,261.5,141.3,261.4,141.3,261.4z"/>
		<path class="st7" d="M135.4,258.8c1.4-0.7,2.7-1.5,4.2-2.1c1.5-0.5,3-1.3,4.6-1.8c1.4-0.4,2.9-0.6,4.3-0.9
			c1.6-0.3,3.1-0.5,4.7,0.1c0.4,0.2,0.7,1,0.1,1.2c-1.3,0.4-2.7,0.4-4,0.6c-1.6,0.2-3.1,0.5-4.7,0.8
			C141.5,257.5,138.5,258.3,135.4,258.8C135.4,258.9,135.4,258.9,135.4,258.8z"/>
		<path class="st7" d="M131.6,266.6c1-0.1,2-0.4,3-0.6c1.3-0.2,2.6-0.4,4-0.6c2.5-0.3,5.1-0.5,7.6-0.4c4.6,0.2,11.2,0.5,14.1,4.8
			c0.4,0.6,0.3,1.5-0.5,1.6c-2.2,0.3-4.5-1.1-6.6-1.8c-2.3-0.7-4.7-1.2-7.1-1.7c-2.4-0.4-4.9-0.8-7.3-1.1c-1.3-0.2-2.7-0.3-4-0.3
			C133.7,266.5,132.6,266.7,131.6,266.6C131.6,266.6,131.5,266.6,131.6,266.6z"/>
		<path class="st7" d="M132.1,268.8c1.7-0.5,3.7-0.6,5.5-0.4c2.3,0.3,4.8,1.2,6.4,2.8c0.6,0.6,0.5,1.7-0.5,1.6c-2-0.3-3.8-1.4-5.7-2
			C135.9,270.2,134.1,269.3,132.1,268.8C132.1,268.9,132,268.9,132.1,268.8z"/>
		<path class="st7" d="M135.5,272.9c2.7,1.2,5.4,2.3,8,3.7c2.8,1.6,5.4,3.6,7.7,5.8c2.2,2.1,4.2,4.7,5.7,7.5
			c0.7,1.4,1.3,2.8,1.7,4.3c0.4,1.3,0.9,3.2,0.4,4.5c-0.3,0.8-1.3,1-1.9,0.4c-1-0.9-1.6-2.3-2.1-3.5c-0.5-1.2-0.9-2.5-1.5-3.7
			c-1.1-2.5-2.8-4.9-4.5-7.1C145.4,279.9,140.6,276.2,135.5,272.9C135.5,273,135.5,272.9,135.5,272.9z"/>
		<path class="st7" d="M123.8,273.5c4.2,3.1,8,7.2,11,11.5c1.7,2.3,2.8,5.2,3.9,7.8c1,2.4,1.8,5.4,1.5,8c-0.1,0.7-0.9,0.8-1.3,0.2
			c-1.4-2-2.3-4.6-3.2-6.8c-1-2.6-2.1-5.1-3.3-7.5c-1.1-2.2-2.5-4.4-3.8-6.5C127.3,277.8,125.7,275.6,123.8,273.5
			C123.7,273.6,123.8,273.5,123.8,273.5z"/>
		<path class="st7" d="M135.7,280.6c2.7,2,5.4,3.9,7.6,6.4c2.3,2.7,4.3,5.8,5,9.3c0.3,1.5-1.6,1.5-2.2,0.4c-1.4-2.9-2.8-5.8-4.5-8.5
			C140,285.4,138,282.9,135.7,280.6C135.6,280.7,135.6,280.6,135.7,280.6z"/>
		<path class="st7" d="M142.3,295.4c1,1.6,2.1,3.2,2.7,5.1c0.7,2.2,1,4.2,0.9,6.5c0,1-1.3,0.6-1.5-0.1
			C143.5,303,143.2,299.1,142.3,295.4C142.2,295.3,142.2,295.3,142.3,295.4z"/>
		<path class="st7" d="M125.5,271.6c5.4,1.2,12.5,2.6,15.2,8.2c0.3,0.6-0.3,1.2-0.9,0.9c-1.3-0.6-2.2-1.5-3.2-2.4
			c-1-0.9-2.1-1.8-3.3-2.6c-2.4-1.8-5.1-2.9-7.9-4C125.4,271.7,125.4,271.6,125.5,271.6z"/>
		<path class="st7" d="M148.5,276.9c3,0.7,6,1.8,8.5,3.6c1.4,1,2.6,2.2,3.7,3.5c0.9,1.1,2,2.6,1.8,4.2c-0.1,0.6-0.6,0.9-1.2,0.7
			c-1.2-0.5-2.1-1.7-2.8-2.7c-0.9-1.2-1.9-2.3-3-3.4C153.2,280.5,151.2,278.4,148.5,276.9C148.4,276.9,148.4,276.9,148.5,276.9z"/>
		<path class="st7" d="M119.8,275.8c0-0.1,0.2-0.1,0.2,0c1.6,4.4,3.3,8.9,2.9,13.7c-0.1,1.3-1.7,0.8-1.9-0.2
			C119.9,284.9,119.6,280.3,119.8,275.8z"/>
		<path class="st7" d="M117.4,272.1C117.4,272,117.5,272,117.4,272.1c0.3,1.8,0.6,3.6,0.7,5.4c0.1,2,0.3,4,0.4,6
			c0.1,4,0.6,8.3-0.2,12.2c-0.2,0.8-1.2,0.2-1.3-0.3c-0.4-1.9-0.5-4-0.5-6c0-2-0.1-4-0.1-6C116.5,279.6,116.9,275.8,117.4,272.1z"/>
		<path class="st7" d="M123.8,281.3c1.4,2.8,3,5.5,4.1,8.4c0.5,1.5,0.9,2.9,1.3,4.4c0.4,1.5,0.4,3,0.4,4.6c0,1.1-1.4,0.8-1.7,0.1
			c-1.1-2.8-1.5-5.7-2.3-8.7c-0.4-1.5-0.5-3.1-0.8-4.6C124.5,284.1,124,282.7,123.8,281.3C123.7,281.3,123.8,281.3,123.8,281.3z"/>
		<path class="st7" d="M134,295.9c0.3,0.5,0.5,1,0.7,1.5c1,2.3,2.5,5.6,1.5,8.2c-0.3,0.7-1.1,0.6-1.5,0.1c-1.7-2.3-1.8-5.5-2.5-8.2
			c-0.3-1.3-0.6-2.7-1-4c-0.2-0.7-0.6-1.6-0.7-2.4C131.6,292.7,132.9,294.3,134,295.9z"/>
		<path class="st7" d="M121.5,301.1c0.1-2,0.3-4,0.4-6c0-0.1,0.2-0.1,0.2,0c1.1,4.1,2.3,8.4,1.5,12.7c-0.2,1.1-1.7,0.3-1.9-0.4
			C121.2,305.2,121.4,303.2,121.5,301.1z"/>
		<path class="st7" d="M120.1,271.9c1.2,1.2,2.6,2.2,3.7,3.5c1.1,1.3,2,2.8,2.4,4.4c0.1,0.6-0.7,0.8-0.9,0.3
			c-0.8-1.3-1.4-2.6-2.2-3.9C122.1,274.6,120.9,273.4,120.1,271.9C120,271.9,120,271.8,120.1,271.9z"/>
		<path class="st7" d="M149.9,272.9c1.9,0.2,3.9,0.8,5.6,1.5c2.2,0.9,4.3,2,5.7,4c0.4,0.6,0.2,1.5-0.7,1.4c-2.1-0.4-3.6-1.9-5.3-3.2
			c-1.7-1.3-3.5-2.8-5.5-3.6C149.9,273,149.8,272.9,149.9,272.9z"/>
		<path class="st7" d="M107.6,288c0.7-2.1,1.4-4.3,2.2-6.3c0.8-2.1,1.8-4,2.9-5.9c0.5-0.9,1.2-1.7,1.9-2.5c0.3-0.3,0.6-0.7,0.9-1.1
			c0.3-0.3,0.7-0.6,0.9-0.9c0,0,0.1,0,0.1,0c-0.1,0.2-0.2,0.4-0.3,0.6c-0.3,0.5-0.6,1-0.8,1.5c-0.4,1-0.7,2-1.1,2.9
			c-0.7,2.2-1.7,4.2-2.5,6.4c-0.7,2-1.4,4-2.1,6c-0.7,2-1.2,4.1-2.1,6.1c-0.3,0.6-1.1,0.2-1-0.4C106.7,292.2,106.9,290.1,107.6,288z
			"/>
		<path class="st7" d="M98,298.2c0.8-1.9,1.7-3.8,2.7-5.7c0.9-1.7,1.8-3.4,2.9-5.1c0.5-0.8,1.1-1.6,1.8-2.4
			c-0.7,2.1-1.1,4.3-1.7,6.4c-0.2,0.7-0.4,1.3-0.7,2c-0.7,1.9-1.4,3.7-2.2,5.6c-0.7,1.7-1.3,3.5-2.6,4.9c-0.3,0.4-1,0.1-1-0.4
			C97,301.6,97.3,300.1,98,298.2z"/>
		<path class="st7" d="M110.9,316.1c-0.5,0.6-1.2,1.1-1.8,0.3c-0.2-0.3-0.4-0.6-0.5-0.9c-0.3-2-0.1-4.2,0-6.2
			c0.2-3.7,0.5-7.4,1.2-11c0.7-3.5,2.1-6.7,3.3-10c-0.5,1.5-0.2,3.8-0.3,5.4c-0.1,1.9-0.1,3.8-0.1,5.7c-0.1,3.5-0.3,7.1-0.8,10.6
			c-0.2,1.4-0.3,2.9-0.5,4.3C111.3,315,111.1,315.6,110.9,316.1z"/>
		<path class="st7" d="M94,294.8c0.6-2.6,1.6-4.9,3.2-7c1.5-2,3-4,4.6-5.9c1.6-2.1,3.5-3.9,5.5-5.7c1.9-1.7,4.1-3.3,6.5-4.1
			c0,0,0.1,0.1,0,0.1c-2.1,1.3-3.7,3.5-5.2,5.4c-1.7,2.1-3.3,4.3-4.9,6.4c-1.4,1.8-2.7,3.6-4,5.4c-1.5,2.1-2.8,4.3-4.4,6.3
			C94.7,296.2,93.9,295.4,94,294.8z"/>
		<path class="st7" d="M84,299.5c0.7-2.5,1.5-4.8,2.9-7c2-3.2,4.3-6.1,7-8.7c2.6-2.5,5.4-4,8.5-5.7c0.1,0,0.1,0.1,0.1,0.1
			c-0.7,0.7-1.6,1.3-2.3,2.1c-4,4.3-7.8,9.2-11,14.2c-1.3,2.1-2.7,4-4.4,5.7C84.5,300.6,83.9,299.9,84,299.5z"/>
		<path class="st7" d="M73.4,268.4c2.5-2.1,5.5-3.1,8.7-3.7c6.8-1.3,12.9-1.5,19.7-0.1c3.1,0.6,6.3,1.6,9.1,3.2c0,0,0,0.1,0,0.1
			c-6-2.3-12.6-2.1-18.8-1.3c-3,0.4-6,0.8-8.9,1.4c-3.1,0.6-6,1.6-9.1,1.8C73.4,269.8,72.9,268.8,73.4,268.4z"/>
		<path class="st7" d="M69.5,278.9c0.2-1.9,2-2.7,3.5-3.6c1.9-1,4-1.9,6-2.6c1.9-0.7,4-1.2,6-1.7c2-0.4,4.1-0.9,6.1-1.2
			c0,0,0.1,0.1,0,0.1c-3.8,1.2-7.4,2.7-10.9,4.4c-1.6,0.8-3.3,1.6-4.8,2.6C74.8,277.3,69.2,281.6,69.5,278.9z"/>
		<path class="st7" d="M81.4,278.6c3.8-3.7,8.9-6,13.9-7.6c2.5-0.8,5-1.2,7.5-1.6c1.3-0.2,2.6-0.3,3.9-0.3c0.8,0,1.8,0,2.5,0.3
			c0,0,0,0.1,0,0.1c-1-0.2-2.3,0.3-3.3,0.6c-1.2,0.3-2.3,0.6-3.4,1.1c-2.3,0.9-4.7,1.6-6.9,2.5c-4.6,1.9-9.1,4-13.7,5.7
			C81.4,279.4,81.1,278.8,81.4,278.6z"/>
		<path class="st7" d="M81.3,287c1.1-2.5,3.5-4,5.7-5.5c2-1.5,4.2-2.8,6.4-4c4.5-2.4,9.7-4.8,14.9-5.4c0,0,0.1,0,0,0.1
			c-2.3,0.8-4.4,2.3-6.5,3.3c-2.3,1.2-4.5,2.4-6.8,3.6c-2.2,1.2-4.3,2.5-6.2,3.9c-1.1,0.8-2.2,1.5-3.2,2.4c-1.1,0.9-2,1.8-3.4,2.3
			C81.6,287.9,81.1,287.4,81.3,287z"/>
		<path class="st7" d="M69.9,295.5c-0.1-1,1.1-3,1.3-3.4c1.2-2.2,2.7-4.2,4.4-6.1c2.4-2.5,5.6-4.9,9.1-5.5c0.1,0,0.1,0.1,0.1,0.1
			c-1.9,1.2-3.2,3.2-4.7,4.9c-2,2.3-4.1,4.4-6,6.8c-0.7,0.9-2.5,3.8-3.7,3.6C70,296,69.9,295.8,69.9,295.5z"/>
		<path class="st7" d="M79.8,295.9c1.1-1.5,2.4-2.9,3.7-4.2c1.3-1.3,2.8-2.4,4.2-3.5c0.1,0,0.2,0.1,0.1,0.1
			c-1.2,1.3-2.3,2.5-3.3,3.9c-1.1,1.5-2.1,3.1-3,4.7c-1.8,3.1-3.4,6.3-5.4,9.3c-0.4,0.6-1.4,0-1.3-0.7
			C75.2,301.9,77.6,298.7,79.8,295.9z"/>
		<path class="st7" d="M116.8,306.6c0.2-0.9,0.4-1.7,0.6-2.5c0.2-0.7,0.3-1.4,0.5-2.1c0.1-0.2,0.3,0,0.3,0.1c0,0.7,0.2,1.5,0.3,2.2
			c0.1,0.9,0.2,1.8,0.3,2.7c0.2,1.6,0.3,3.3-0.4,4.8c-0.3,0.6-1.3,0.2-1.5-0.3C116.3,309.9,116.5,308.3,116.8,306.6z"/>
		<path class="st7" d="M65.4,265.8c0.3-2.6,3.6-3.4,5.7-3.9c1.4-0.3,2.8-0.4,4.2-0.5c1.3-0.1,2.6-0.2,3.9,0.1c0.1,0,0.1,0.1,0,0.2
			c-2.3,0.6-4.5,1.8-6.7,2.7c-1.1,0.4-2.1,0.9-3.1,1.5c-0.9,0.5-2,1.2-3.1,1.1C65.9,266.8,65.3,266.4,65.4,265.8z"/>
		<path class="st7" d="M91,252.8c1-0.2,1.9-0.1,2.8,0.1c1.5,0.5,2.9,1.1,4.1,2.1c-2.2-0.7-4.6-0.5-6.8-1.2
			C90.7,253.6,90.4,252.9,91,252.8z"/>
	</g>
	<g>
		<path class="st7" d="M300.5,156.3c1.4-0.3,2.9,0.3,4.2,1c1.4,0.8,3.2,2.1,4.2,3.4c1.9,2.5,3.6,5.5,4.4,8.6c0,0,0,0,0,0
			c-1.1-2.9-2.8-5.3-5.3-7c-1.2-0.9-2.4-1.8-3.7-2.6c-1.2-0.8-2.8-1-3.9-2C300.1,157.3,299.8,156.4,300.5,156.3z"/>
		<path class="st7" d="M290.5,143c1-1,2.2-0.8,3.5-0.3c1.2,0.5,2.6,1,3.7,1.8c2.2,1.6,4.3,3.2,6.1,5.2c1.6,1.9,3.3,3.8,4.7,5.9
			c1.4,2.1,2.4,4.4,3.5,6.6c0,0.1,0,0.1-0.1,0c-0.6-0.9-1-1.9-1.6-2.8c-0.7-1.1-1.5-2-2.3-2.9c-3.5-4-7.6-6.6-12.5-8.6
			C294.2,147.4,287.9,145.5,290.5,143z"/>
		<path class="st7" d="M301,128.8c2.8,0.1,5,3,6.5,5c1.7,2.4,2.6,5.2,3.2,8c1.3,5.6,2.4,11.4,1.9,17.1c0,0-0.1,0-0.1,0
			c-0.2-5.7-2.2-11.1-4.5-16.2c-1-2.3-2.3-4.5-3.8-6.5c-1.5-1.9-3.7-3.5-4.4-5.9C299.7,129.7,300.2,128.8,301,128.8z"/>
		<path class="st7" d="M289.5,133c1.4-1.2,3.3-0.3,4.7,0.5c1.8,1,3.3,2.2,4.7,3.7c1.2,1.2,2.2,2.6,3.1,4.1c0.4,0.7,0.8,1.4,1.2,2.1
			c0.4,0.7,0.9,1.3,1.2,2c0,0.1-0.1,0.1-0.1,0c-0.7-1.2-2.1-2.4-3.2-3.2c-1.2-0.9-2.5-1.8-3.8-2.6c-1.4-0.8-2.8-1.6-4.2-2.4
			c-1.5-0.7-3-1.2-3.8-2.8C289,134,289.1,133.4,289.5,133z"/>
		<path class="st7" d="M270.5,147.8c1.8-1.7,4.1-1.7,6.5-1.7c2.6,0.1,5.4,0.7,7.9,1.4c2.5,0.7,4.9,2,7.3,3.1
			c0.8,0.4,1.6,0.8,2.4,1.3c0.1,0.1,0.2,0.1,0.3,0.2c0.4,0.4,0.9,0.7,1.3,1.1c-0.5-0.1-0.9-0.2-1.3-0.4c-1.1-0.4-2.1-0.7-3.2-1
			c-3.2-0.9-6.5-1.3-9.8-1.6c-3.6-0.3-7.3,0-10.8-1.2C270.4,149,270.1,148.3,270.5,147.8z"/>
		<path class="st7" d="M265,158.3c3.3-1.4,6.9-2.6,10.5-2.8c3.7-0.3,7.7,0.3,11.4,1c3.7,0.7,7.1,1.7,10.3,3.5c3.2,1.8,6,4,9,6.2
			c0,0,0,0.1,0,0.1c-3.7-2.1-7.3-3.9-11.5-4.9c-6-1.4-12.3-2.2-18.5-2.2c-3.6,0-7.2,0.1-10.9,0.3C264.9,159.3,264.5,158.5,265,158.3
			z"/>
		<path class="st7" d="M318.7,142.5c0.6-3.5,1.8-6.6,3.4-9.8c1.6-3.2,3.6-6.2,6.1-8.8c1.1-1.2,2.4-2.2,3.7-3.1
			c1.4-1,2.9-1.5,4.6-1.5c0.6,0,1.2,0.9,0.6,1.4c-1.1,0.9-2.2,1.8-3.3,2.7c-1.3,1-2.6,2-3.7,3.3c-2.2,2.5-3.9,5.2-5.6,8.1
			c-3.2,5.6-6.1,11.6-6.8,18.1c0,0.1-0.1,0-0.1,0C317.5,149.4,318.1,145.9,318.7,142.5z"/>
		<path class="st7" d="M314.3,128.3c0.4-0.2,0.9,0.1,1.2,0.4c1.3,1.6,0.8,3.9,0.6,5.8c0,0.4-0.2,0.8-0.2,1.3c0,0.5-0.1,1.1-0.2,1.6
			c-0.1,1-0.2,1.9-0.3,2.9c-0.4,4.1-0.6,8.1-0.4,12.2c0,0.1-0.1,0.1-0.2,0c-0.8-4.2-1.4-8.6-2-12.9c-0.1-1-0.2-2-0.3-3
			c0-0.4-0.1-0.9-0.1-1.3c0-0.6-0.2-1.2-0.2-1.8C312.4,131.9,312.4,129,314.3,128.3z"/>
		<path class="st7" d="M308.7,130.4c-0.1-0.2-0.3-0.5-0.4-0.8c0-0.2-0.1-0.4-0.1-0.6c-0.3-1.1-0.6-2.1-0.8-3.2
			c-0.4-1.6-0.7-4.5,1.7-4.6c0.4,0,0.9,0.3,1.1,0.7c0.5,1.4,0,2.7-0.5,4C309.3,127.2,308.5,129,308.7,130.4z"/>
		<path class="st7" d="M318.2,156.2c0.2-1,0.3-1.9,0.5-2.9c0.5-2.2,1.4-4.3,2.4-6.3c1-1.9,2.2-3.7,3.5-5.4c1.4-1.8,2.8-3.3,4.9-4.4
			c0.6-0.3,1,0.6,0.8,1c-1.9,3.7-5,6.5-7,10.1c-1,1.7-1.8,3.5-2.8,5.2c-0.9,1.7-2.1,3.4-2.5,5.4c0,0.1-0.2,0-0.2-0.1
			C317.8,158,318,157.1,318.2,156.2z"/>
		<path class="st7" d="M327.4,132.6c0.8-0.9,1.5-2,2.9-1.8c0.6,0.1,0.8,0.7,0.7,1.2c-0.4,2.1-3.6,2-4.8,3.5c0,0-0.1,0-0.1,0
			C326.3,134.5,326.7,133.4,327.4,132.6z"/>
		<path class="st7" d="M329.5,150.3c0.6-0.3,1.1,0.7,0.7,1.1c-2.4,2.5-4.9,4.9-7,7.6c-1.1,1.4-2.1,2.8-3.1,4.4c-1,1.6-2.1,3-2.8,4.6
			c-0.1,0.1-0.2,0-0.2-0.1C317.5,160.5,322.8,153.3,329.5,150.3z"/>
		<path class="st7" d="M324.8,150.1c1.2-3.6,3.6-6.4,6.5-8.8c2.8-2.4,6.8-5.8,10.8-4.6c0.7,0.2,1.1,1,0.8,1.6
			c-0.9,1.5-2.6,2-4.2,2.6c-1.8,0.7-3.4,1.8-5,2.8c-1.5,1-3.1,1.9-4.6,3c-1.6,1-3,1.9-4.1,3.5C324.9,150.2,324.8,150.1,324.8,150.1z
			"/>
		<path class="st7" d="M314.2,158.8c0.1-0.5,0.8-0.3,0.9,0.1c0.5,1.4,0.6,2.8,0.6,4.3c0,0.7-0.1,1.6-0.2,2.3
			c-0.1,0.6-0.5,1.5-0.4,2.2c0,0.2-0.2,0.2-0.3,0.1c-0.2-0.3-0.2-0.6-0.2-1c-0.1-1-0.2-1.9-0.3-2.9
			C314.1,162.2,313.8,160.5,314.2,158.8z"/>
		<path class="st7" d="M318.9,168.6c0.3-0.6,0.6-1.2,1-1.8c0.4-0.7,1-1.3,1.4-1.9c0.8-1.2,1.7-2.3,2.7-3.4c2-2.3,4.5-4.4,7-6.1
			c4.8-3.3,10.6-7,16.7-6.7c0.5,0,1.1,0.8,0.5,1.2c-1.1,0.6-2.2,1-3.3,1.5c-1.4,0.6-2.7,1.3-4.1,1.8c-2.8,1.1-5.5,2.8-8.1,4.4
			c-2.4,1.5-4.9,3.2-7.1,5c-1.1,0.9-2.2,1.9-3.3,2.8C321,166.3,320,167.4,318.9,168.6C319,168.7,318.9,168.6,318.9,168.6z"/>
		<path class="st7" d="M333.8,148.9c0.9-1.1,2.2-2,3.4-2.9c1.6-1.2,3.1-2.2,4.8-3.2c1.6-0.9,3.3-1.8,5-2.6c1.8-0.7,3.6-1.5,5.5-0.9
			c0.5,0.1,1.1,1,0.5,1.4c-1.4,0.9-2.9,1.2-4.4,1.8c-1.7,0.6-3.4,1.3-5.1,2c-1.7,0.7-3.3,1.4-4.9,2.2c-1.5,0.7-3.2,1.4-4.5,2.5
			C333.9,149.2,333.7,149,333.8,148.9z"/>
		<path class="st7" d="M320.5,169.2c0.6-1,1.5-1.8,2.5-2.4c1.3-0.9,2.8-1.7,4.3-2.4c1.5-0.8,3.3-1,5-1.4c1.2-0.3,2.9-0.8,4-0.2
			c0.5,0.3,0.9,1.1,0.3,1.5c-0.9,0.6-2.4,0.4-3.4,0.7c-1.6,0.3-3.1,0.7-4.6,1.1c-1.4,0.4-2.7,0.8-4.1,1.4c-0.6,0.3-1.2,0.6-1.9,0.9
			C321.9,168.6,321.1,168.8,320.5,169.2C320.5,169.2,320.5,169.2,320.5,169.2z"/>
		<path class="st7" d="M340.1,162.4c1.9-0.3,3.7-0.7,5.6-1c1.9-0.2,3.8-0.4,5.8-0.5c3.7-0.2,8,0.2,11.1,2.5c0.6,0.4,0.6,1.8-0.3,1.7
			c-1.8,0-3.4-0.7-5.1-1.2c-1.8-0.5-3.7-0.9-5.5-1.2c-1.9-0.2-3.8-0.3-5.7-0.4C343.9,162.3,342,162.5,340.1,162.4
			C340,162.5,340,162.4,340.1,162.4z"/>
		<path class="st7" d="M333.7,159.6c1.5-0.7,2.9-1.7,4.5-2.2c1.7-0.6,3.2-1.4,4.9-1.9c1.5-0.5,3.1-0.7,4.7-1
			c1.8-0.3,3.4-0.5,5.1,0.1c0.5,0.2,0.7,1.1,0.1,1.3c-1.4,0.4-2.9,0.5-4.3,0.7c-1.7,0.2-3.4,0.5-5.1,0.8
			C340.3,158.2,337,159,333.7,159.6C333.7,159.7,333.7,159.6,333.7,159.6z"/>
		<path class="st7" d="M329.5,168c1.1-0.1,2.1-0.5,3.2-0.6c1.4-0.2,2.9-0.5,4.3-0.7c2.7-0.3,5.5-0.6,8.2-0.5
			c5,0.2,12.1,0.6,15.2,5.2c0.4,0.7,0.4,1.6-0.6,1.7c-2.4,0.3-4.9-1.2-7.1-1.9c-2.5-0.8-5.1-1.3-7.7-1.8c-2.6-0.5-5.3-0.9-7.9-1.2
			c-1.4-0.2-2.9-0.3-4.3-0.3C331.8,167.9,330.7,168.1,329.5,168C329.5,168,329.5,168,329.5,168z"/>
		<path class="st7" d="M330.1,170.4c1.9-0.5,4-0.6,5.9-0.4c2.5,0.3,5.1,1.3,6.9,3.1c0.6,0.6,0.6,1.9-0.5,1.7
			c-2.1-0.3-4.1-1.5-6.1-2.2c-2.1-0.7-4.1-1.7-6.2-2.1C330,170.5,330,170.4,330.1,170.4z"/>
		<path class="st7" d="M333.8,174.9c2.9,1.3,5.9,2.5,8.6,4c3,1.7,5.9,3.9,8.4,6.2c2.4,2.3,4.6,5.1,6.1,8c0.8,1.5,1.4,3,1.9,4.6
			c0.4,1.4,1,3.5,0.4,4.9c-0.3,0.9-1.4,1-2.1,0.4c-1-0.9-1.7-2.5-2.2-3.8c-0.5-1.3-1-2.7-1.6-4c-1.2-2.7-3-5.3-4.8-7.6
			C344.5,182.4,339.3,178.4,333.8,174.9C333.8,174.9,333.8,174.8,333.8,174.9z"/>
		<path class="st7" d="M321.1,175.5c4.6,3.4,8.6,7.8,11.9,12.4c1.8,2.5,3,5.6,4.2,8.4c1.1,2.6,2,5.8,1.6,8.7c-0.1,0.7-1,0.8-1.4,0.3
			c-1.5-2.2-2.5-4.9-3.5-7.4c-1.1-2.8-2.2-5.5-3.6-8.2c-1.2-2.4-2.7-4.7-4.1-7C324.9,180.1,323.2,177.7,321.1,175.5
			C321,175.5,321.1,175.4,321.1,175.5z"/>
		<path class="st7" d="M334,183.1c2.9,2.1,5.8,4.2,8.2,6.9c2.5,2.9,4.7,6.3,5.4,10.1c0.3,1.6-1.7,1.6-2.3,0.4
			c-1.5-3.1-3-6.2-4.8-9.2C338.6,188.3,336.5,185.6,334,183.1C333.9,183.2,333.9,183.1,334,183.1z"/>
		<path class="st7" d="M341.1,199.1c1,1.8,2.3,3.5,2.9,5.5c0.7,2.3,1,4.5,1,7c0,1.1-1.4,0.6-1.6-0.2
			C342.4,207.3,342,203.1,341.1,199.1C341,199,341,199,341.1,199.1z"/>
		<path class="st7" d="M322.9,173.4c5.9,1.3,13.5,2.8,16.4,8.9c0.3,0.7-0.3,1.3-0.9,1c-1.4-0.6-2.4-1.6-3.5-2.6
			c-1.1-1-2.3-1.9-3.5-2.8c-2.6-2-5.5-3.1-8.5-4.3C322.8,173.5,322.9,173.4,322.9,173.4z"/>
		<path class="st7" d="M347.8,179.1c3.2,0.8,6.4,1.9,9.1,3.9c1.5,1.1,2.8,2.3,4,3.7c1,1.2,2.1,2.9,1.9,4.5c-0.1,0.7-0.7,1-1.3,0.7
			c-1.3-0.6-2.2-1.8-3.1-2.9c-1-1.3-2-2.5-3.2-3.7C352.9,183.1,350.7,180.8,347.8,179.1C347.7,179.1,347.7,179.1,347.8,179.1z"/>
		<path class="st7" d="M316.8,177.9c0-0.1,0.2-0.1,0.2,0c1.8,4.7,3.5,9.6,3.2,14.8c-0.1,1.4-1.8,0.8-2.1-0.2
			C316.9,187.8,316.6,182.8,316.8,177.9z"/>
		<path class="st7" d="M314.3,173.9c0-0.1,0.1,0,0.1,0c0.2,2,0.6,3.9,0.7,5.8c0.1,2.2,0.4,4.3,0.4,6.5c0.1,4.3,0.6,8.9-0.2,13.2
			c-0.2,0.9-1.3,0.2-1.4-0.3c-0.5-2.1-0.5-4.3-0.6-6.5c-0.1-2.2-0.1-4.3-0.1-6.5C313.3,182.1,313.7,177.9,314.3,173.9z"/>
		<path class="st7" d="M321.1,183.9c1.5,3.1,3.2,5.9,4.4,9.1c0.6,1.6,1,3.2,1.4,4.8c0.4,1.7,0.4,3.3,0.4,5c0,1.1-1.5,0.9-1.8,0.1
			c-1.2-3-1.7-6.2-2.4-9.4c-0.4-1.6-0.6-3.3-0.9-5C321.8,186.9,321.4,185.4,321.1,183.9C321.1,183.9,321.1,183.9,321.1,183.9z"/>
		<path class="st7" d="M332.1,199.6c0.3,0.5,0.5,1.1,0.8,1.6c1.1,2.5,2.7,6.1,1.7,8.8c-0.3,0.8-1.2,0.7-1.7,0.1
			c-1.8-2.5-1.9-6-2.7-8.8c-0.4-1.5-0.7-2.9-1.1-4.4c-0.2-0.8-0.6-1.7-0.8-2.6C329.6,196.1,330.9,197.9,332.1,199.6z"/>
		<path class="st7" d="M318.6,205.2c0.1-2.2,0.3-4.3,0.4-6.5c0-0.1,0.2-0.1,0.2,0c1.1,4.4,2.5,9.1,1.7,13.7c-0.2,1.2-1.8,0.3-2-0.5
			C318.4,209.7,318.5,207.5,318.6,205.2z"/>
		<path class="st7" d="M317.1,173.7c1.3,1.3,2.8,2.3,4,3.8c1.1,1.4,2.1,3,2.6,4.8c0.2,0.6-0.7,0.9-1,0.4c-0.9-1.4-1.5-2.8-2.3-4.3
			C319.3,176.7,318,175.4,317.1,173.7C317,173.7,317.1,173.6,317.1,173.7z"/>
		<path class="st7" d="M349.3,174.8c2.1,0.2,4.2,0.9,6.1,1.6c2.4,0.9,4.7,2.2,6.2,4.3c0.5,0.7,0.2,1.7-0.7,1.5
			c-2.3-0.4-3.9-2.1-5.7-3.4c-1.8-1.4-3.7-3-5.9-3.9C349.3,174.9,349.2,174.8,349.3,174.8z"/>
		<path class="st7" d="M303.6,191.1c0.7-2.3,1.5-4.6,2.4-6.8c0.9-2.2,1.9-4.4,3.2-6.4c0.6-0.9,1.3-1.9,2.1-2.7
			c0.3-0.4,0.6-0.8,0.9-1.1c0.3-0.3,0.8-0.6,1-1c0,0,0.1,0,0.1,0.1c-0.1,0.3-0.2,0.4-0.3,0.6c-0.3,0.5-0.6,1-0.8,1.6
			c-0.4,1-0.8,2.1-1.2,3.2c-0.8,2.3-1.8,4.6-2.6,6.9c-0.8,2.2-1.5,4.3-2.2,6.5c-0.8,2.2-1.3,4.4-2.3,6.6c-0.3,0.7-1.1,0.2-1.1-0.4
			C302.6,195.6,302.9,193.4,303.6,191.1z"/>
		<path class="st7" d="M293.3,202.1c0.9-2.1,1.8-4.1,2.9-6.1c1-1.8,2-3.7,3.1-5.5c0.6-0.9,1.2-1.7,1.9-2.6c-0.8,2.3-1.2,4.7-1.9,7
			c-0.2,0.7-0.5,1.4-0.7,2.1c-0.7,2-1.6,4-2.3,6.1c-0.7,1.9-1.4,3.8-2.8,5.3c-0.4,0.4-1.1,0.1-1.1-0.4
			C292.2,205.8,292.5,204.1,293.3,202.1z"/>
		<path class="st7" d="M307.2,221.5c-0.5,0.7-1.3,1.2-2,0.3c-0.2-0.3-0.4-0.6-0.6-0.9c-0.4-2.2-0.1-4.6,0-6.7
			c0.3-4,0.5-7.9,1.2-11.9c0.7-3.8,2.3-7.2,3.6-10.8c-0.6,1.6-0.3,4.1-0.3,5.8c-0.1,2-0.1,4.1-0.1,6.1c-0.1,3.8-0.3,7.6-0.8,11.4
			c-0.2,1.6-0.3,3.1-0.5,4.7C307.6,220.3,307.4,220.9,307.2,221.5z"/>
		<path class="st7" d="M289,198.4c0.7-2.8,1.8-5.3,3.5-7.6c1.6-2.2,3.2-4.3,4.9-6.4c1.8-2.2,3.8-4.2,5.9-6.1c2-1.8,4.4-3.5,7-4.4
			c0,0,0.1,0.1,0,0.1c-2.3,1.4-4,3.8-5.7,5.8c-1.9,2.2-3.5,4.6-5.3,6.9c-1.5,1.9-2.9,3.8-4.4,5.8c-1.6,2.2-3,4.6-4.7,6.8
			C289.8,200,288.8,199.1,289,198.4z"/>
		<path class="st7" d="M278.2,203.6c0.8-2.7,1.7-5.2,3.1-7.5c2.1-3.4,4.7-6.6,7.6-9.4c2.8-2.7,5.8-4.4,9.2-6.2
			c0.1,0,0.1,0.1,0.1,0.1c-0.8,0.8-1.7,1.4-2.5,2.2c-4.3,4.7-8.4,10-11.9,15.3c-1.5,2.2-2.9,4.3-4.8,6.2
			C278.7,204.7,278.1,204,278.2,203.6z"/>
		<path class="st7" d="M266.8,169.9c2.7-2.3,5.9-3.3,9.4-4c7.3-1.4,14-1.6,21.3-0.1c3.4,0.7,6.8,1.8,9.8,3.4c0,0,0,0.1,0,0.1
			c-6.4-2.5-13.6-2.2-20.3-1.4c-3.2,0.4-6.4,0.9-9.6,1.5c-3.3,0.7-6.5,1.7-9.9,2C266.7,171.5,266.2,170.4,266.8,169.9z"/>
		<path class="st7" d="M262.5,181.3c0.2-2,2.1-3,3.8-3.8c2.1-1.1,4.3-2,6.5-2.8c2.1-0.7,4.3-1.3,6.4-1.8c2.2-0.5,4.4-1,6.6-1.3
			c0,0,0.1,0.1,0,0.1c-4,1.2-8,2.9-11.8,4.8c-1.8,0.9-3.6,1.7-5.2,2.8C268.3,179.6,262.2,184.2,262.5,181.3z"/>
		<path class="st7" d="M275.3,180.9c4.1-4,9.6-6.5,15-8.2c2.7-0.8,5.4-1.3,8.1-1.8c1.4-0.2,2.8-0.3,4.2-0.3c0.9,0,1.9,0,2.7,0.4
			c0.1,0,0,0.1,0,0.1c-1.1-0.2-2.5,0.3-3.5,0.6c-1.3,0.3-2.5,0.7-3.7,1.2c-2.5,0.9-5,1.7-7.5,2.7c-5,2-9.8,4.3-14.8,6.2
			C275.3,181.9,275,181.2,275.3,180.9z"/>
		<path class="st7" d="M275.2,190c1.2-2.7,3.8-4.3,6.1-5.9c2.2-1.6,4.5-3,6.9-4.3c4.9-2.5,10.5-5.2,16-5.8c0,0,0.1,0.1,0,0.1
			c-2.5,0.9-4.7,2.4-7.1,3.6c-2.5,1.2-4.9,2.6-7.3,3.9c-2.3,1.2-4.6,2.7-6.7,4.2c-1.2,0.8-2.4,1.7-3.5,2.6c-1.2,1-2.2,1.9-3.6,2.5
			C275.6,191,275,190.5,275.2,190z"/>
		<path class="st7" d="M262.9,199.3c-0.1-1,1.2-3.2,1.4-3.6c1.3-2.4,2.9-4.6,4.8-6.5c2.6-2.7,6.1-5.3,9.9-6c0.1,0,0.1,0.1,0.1,0.1
			c-2.1,1.3-3.5,3.5-5.1,5.3c-2.2,2.5-4.5,4.8-6.5,7.4c-0.7,0.9-2.7,4.1-4,3.9C263,199.7,262.9,199.5,262.9,199.3z"/>
		<path class="st7" d="M273.6,199.7c1.2-1.6,2.6-3.1,4-4.6c1.4-1.4,3-2.5,4.6-3.8c0.1,0,0.2,0.1,0.1,0.1c-1.3,1.4-2.5,2.7-3.6,4.2
			c-1.2,1.6-2.2,3.3-3.2,5c-1.9,3.4-3.7,6.8-5.8,10c-0.5,0.7-1.5,0-1.4-0.7C268.6,206.1,271.3,202.7,273.6,199.7z"/>
		<path class="st7" d="M313.5,211.2c0.2-0.9,0.4-1.8,0.7-2.7c0.2-0.7,0.3-1.5,0.5-2.2c0.1-0.2,0.4,0,0.3,0.1c0,0.8,0.2,1.6,0.4,2.4
			c0.2,1,0.2,2,0.3,3c0.2,1.7,0.3,3.5-0.4,5.2c-0.3,0.7-1.4,0.2-1.6-0.4C313,214.8,313.2,213,313.5,211.2z"/>
		<path class="st7" d="M258.1,167.2c0.4-2.8,3.9-3.7,6.1-4.2c1.5-0.3,3.1-0.5,4.6-0.5c1.4-0.1,2.8-0.2,4.2,0.1c0.1,0,0.1,0.1,0,0.2
			c-2.5,0.6-4.9,1.9-7.2,2.9c-1.2,0.5-2.3,1-3.4,1.6c-1,0.6-2.1,1.3-3.4,1.1C258.6,168.2,258,167.8,258.1,167.2z"/>
		<path class="st7" d="M285.7,153.1c1-0.2,2-0.1,3,0.1c1.6,0.5,3.1,1.2,4.4,2.2c-2.4-0.7-4.9-0.5-7.3-1.3
			C285.3,153.9,285.1,153.2,285.7,153.1z"/>
	</g>
	<path class="st18" d="M216.6,115.4c1.2-3.4,3-6.7,5.8-9c1.4-1.1,2.9-2,4.6-2.6c1.5-0.6,4-0.4,4.2-2.4c0-0.1,0-0.1,0-0.1
		c0,0,0-0.1,0-0.1c-0.2-2-2.7-1.8-4.2-2.4c-1.7-0.6-3.2-1.5-4.6-2.6c-2.8-2.3-4.6-5.6-5.8-9c-1.1-3.2-3.7-0.9-4.1,1.1
		c-1.2,5.8-4.5,9.2-10.2,10.5c-1.3,0.3-3.1,0.7-3.1,2.5c0,0,0,0,0,0c0,0,0,0,0,0c0,1.8,1.8,2.2,3.1,2.5c5.7,1.3,9.1,4.6,10.2,10.5
		C213,116.3,215.6,118.5,216.6,115.4z"/>
	<path class="st24" d="M171.2,115.5c1.2-3.4,3-6.7,5.8-9c1.4-1.1,2.9-2,4.6-2.6c1.5-0.6,4-0.4,4.2-2.4c0,0,0-0.1,0-0.1
		c0,0,0-0.1,0-0.1c-0.2-2-2.7-1.8-4.2-2.4c-1.7-0.6-3.2-1.5-4.6-2.6c-2.8-2.3-4.6-5.6-5.8-9c-1.1-3.2-3.7-0.9-4.1,1.1
		c-1.2,5.8-4.5,9.2-10.2,10.5c-1.3,0.3-3.1,0.7-3.1,2.5c0,0,0,0,0,0c0,0,0,0,0,0c0,1.8,1.8,2.2,3.1,2.5c5.7,1.3,9.1,4.6,10.2,10.5
		C167.6,116.4,170.2,118.7,171.2,115.5z"/>
	<path class="st18" d="M125.8,115.4c1.2-3.4,3-6.7,5.8-9c1.4-1.1,2.9-2,4.6-2.6c1.5-0.6,4-0.4,4.2-2.4c0-0.1,0-0.1,0-0.1
		c0,0,0-0.1,0-0.1c-0.2-2-2.7-1.8-4.2-2.4c-1.7-0.6-3.2-1.5-4.6-2.6c-2.8-2.3-4.6-5.6-5.8-9c-1.1-3.2-3.7-0.9-4.1,1.1
		c-1.2,5.8-4.5,9.2-10.2,10.5c-1.3,0.3-3.1,0.7-3.1,2.5c0,0,0,0,0,0c0,0,0,0,0,0c0,1.8,1.8,2.2,3.1,2.5c5.7,1.3,9,4.6,10.2,10.5
		C122.2,116.3,124.7,118.5,125.8,115.4z"/>
	<path class="st24" d="M80.4,115.4c1.2-3.4,3-6.7,5.8-9c1.4-1.1,2.9-2,4.6-2.6c1.5-0.6,4-0.4,4.2-2.4c0-0.1,0-0.1,0-0.1
		c0,0,0-0.1,0-0.1c-0.2-2-2.7-1.8-4.2-2.4c-1.7-0.6-3.2-1.5-4.6-2.6c-2.8-2.3-4.6-5.6-5.8-9c-1.1-3.2-3.7-0.9-4.1,1.1
		c-1.2,5.8-4.5,9.2-10.2,10.5c-1.3,0.3-3.1,0.7-3.1,2.5c0,0,0,0,0,0c0,0,0,0,0,0c0,1.8,1.8,2.2,3.1,2.5c5.7,1.3,9.1,4.6,10.2,10.5
		C76.7,116.3,79.3,118.5,80.4,115.4z"/>
	<path class="st24" d="M262.1,115.5c1.2-3.4,3-6.7,5.8-9c1.4-1.1,2.9-2,4.6-2.6c1.5-0.6,4-0.4,4.2-2.4c0,0,0-0.1,0-0.1
		c0,0,0-0.1,0-0.1c-0.2-2-2.7-1.8-4.2-2.4c-1.7-0.6-3.2-1.5-4.6-2.6c-2.8-2.3-4.6-5.6-5.8-9c-1.1-3.2-3.7-0.9-4.1,1.1
		c-1.2,5.8-4.5,9.2-10.2,10.5c-1.3,0.3-3.1,0.7-3.1,2.5c0,0,0,0,0,0c0,0,0,0,0,0c0,1.8,1.8,2.2,3.1,2.5c5.7,1.3,9.1,4.6,10.2,10.5
		C258.4,116.4,261,118.7,262.1,115.5z"/>
	<path class="st18" d="M307.5,115.4c1.2-3.4,3-6.7,5.8-9c1.4-1.1,2.9-2,4.6-2.6c1.5-0.6,4-0.4,4.2-2.4c0-0.1,0-0.1,0-0.1
		c0,0,0-0.1,0-0.1c-0.2-2-2.7-1.8-4.2-2.4c-1.7-0.6-3.2-1.5-4.6-2.6c-2.8-2.3-4.6-5.6-5.8-9c-1.1-3.2-3.7-0.9-4.1,1.1
		c-1.2,5.8-4.5,9.2-10.2,10.5c-1.3,0.3-3.1,0.7-3.1,2.5c0,0,0,0,0,0c0,0,0,0,0,0c0,1.8,1.8,2.2,3.1,2.5c5.7,1.3,9.1,4.6,10.2,10.5
		C303.8,116.3,306.4,118.5,307.5,115.4z"/>
	<path class="st24" d="M352.9,115.5c1.2-3.4,3-6.7,5.8-9c1.4-1.1,2.9-2,4.6-2.6c1.5-0.6,4-0.4,4.2-2.4c0,0,0-0.1,0-0.1
		c0,0,0-0.1,0-0.1c-0.2-2-2.7-1.8-4.2-2.4c-1.7-0.6-3.2-1.5-4.6-2.6c-2.8-2.3-4.6-5.6-5.8-9c-1.1-3.2-3.7-0.9-4.1,1.1
		c-1.2,5.8-4.5,9.2-10.2,10.5c-1.3,0.3-3.1,0.7-3.1,2.5c0,0,0,0,0,0c0,0,0,0,0,0c0,1.8,1.8,2.2,3.1,2.5c5.7,1.3,9.1,4.6,10.2,10.5
		C349.2,116.4,351.8,118.7,352.9,115.5z"/>
	<path class="st24" d="M216.6,344.8c1.2-3.4,3-6.7,5.8-9c1.4-1.1,2.9-2,4.6-2.6c1.5-0.6,4-0.4,4.2-2.4c0-0.1,0-0.1,0-0.1
		c0,0,0-0.1,0-0.1c-0.2-2-2.7-1.8-4.2-2.4c-1.7-0.6-3.2-1.5-4.6-2.6c-2.8-2.3-4.6-5.6-5.8-9c-1.1-3.2-3.7-0.9-4.1,1.1
		c-1.2,5.8-4.5,9.2-10.2,10.5c-1.3,0.3-3.1,0.7-3.1,2.5c0,0,0,0,0,0c0,0,0,0,0,0c0,1.8,1.8,2.2,3.1,2.5c5.7,1.3,9.1,4.6,10.2,10.5
		C213,345.7,215.6,347.9,216.6,344.8z"/>
	<path class="st18" d="M171.2,344.9c1.2-3.4,3-6.7,5.8-9c1.4-1.1,2.9-2,4.6-2.6c1.5-0.6,4-0.4,4.2-2.4c0,0,0-0.1,0-0.1
		c0,0,0-0.1,0-0.1c-0.2-2-2.7-1.8-4.2-2.4c-1.7-0.6-3.2-1.5-4.6-2.6c-2.8-2.3-4.6-5.6-5.8-9c-1.1-3.2-3.7-0.9-4.1,1.1
		c-1.2,5.8-4.5,9.2-10.2,10.5c-1.3,0.3-3.1,0.7-3.1,2.5c0,0,0,0,0,0c0,0,0,0,0,0c0,1.8,1.8,2.2,3.1,2.5c5.7,1.3,9.1,4.6,10.2,10.5
		C167.6,345.8,170.2,348.1,171.2,344.9z"/>
	<path class="st24" d="M125.8,344.8c1.2-3.4,3-6.7,5.8-9c1.4-1.1,2.9-2,4.6-2.6c1.5-0.6,4-0.4,4.2-2.4c0-0.1,0-0.1,0-0.1
		c0,0,0-0.1,0-0.1c-0.2-2-2.7-1.8-4.2-2.4c-1.7-0.6-3.2-1.5-4.6-2.6c-2.8-2.3-4.6-5.6-5.8-9c-1.1-3.2-3.7-0.9-4.1,1.1
		c-1.2,5.8-4.5,9.2-10.2,10.5c-1.3,0.3-3.1,0.7-3.1,2.5c0,0,0,0,0,0c0,0,0,0,0,0c0,1.8,1.8,2.2,3.1,2.5c5.7,1.3,9,4.6,10.2,10.5
		C122.2,345.7,124.7,347.9,125.8,344.8z"/>
	<path class="st18" d="M80.4,344.8c1.2-3.4,3-6.7,5.8-9c1.4-1.1,2.9-2,4.6-2.6c1.5-0.6,4-0.4,4.2-2.4c0-0.1,0-0.1,0-0.1
		c0,0,0-0.1,0-0.1c-0.2-2-2.7-1.8-4.2-2.4c-1.7-0.6-3.2-1.5-4.6-2.6c-2.8-2.3-4.6-5.6-5.8-9c-1.1-3.2-3.7-0.9-4.1,1.1
		c-1.2,5.8-4.5,9.2-10.2,10.5c-1.3,0.3-3.1,0.7-3.1,2.5c0,0,0,0,0,0c0,0,0,0,0,0c0,1.8,1.8,2.2,3.1,2.5c5.7,1.3,9.1,4.6,10.2,10.5
		C76.7,345.7,79.3,347.9,80.4,344.8z"/>
	<path class="st18" d="M262.1,344.9c1.2-3.4,3-6.7,5.8-9c1.4-1.1,2.9-2,4.6-2.6c1.5-0.6,4-0.4,4.2-2.4c0,0,0-0.1,0-0.1s0-0.1,0-0.1
		c-0.2-2-2.7-1.8-4.2-2.4c-1.7-0.6-3.2-1.5-4.6-2.6c-2.8-2.3-4.6-5.6-5.8-9c-1.1-3.2-3.7-0.9-4.1,1.1c-1.2,5.8-4.5,9.2-10.2,10.5
		c-1.3,0.3-3.1,0.7-3.1,2.5c0,0,0,0,0,0c0,0,0,0,0,0c0,1.8,1.8,2.2,3.1,2.5c5.7,1.3,9.1,4.6,10.2,10.5
		C258.4,345.8,261,348.1,262.1,344.9z"/>
	<path class="st24" d="M307.5,344.8c1.2-3.4,3-6.7,5.8-9c1.4-1.1,2.9-2,4.6-2.6c1.5-0.6,4-0.4,4.2-2.4c0-0.1,0-0.1,0-0.1
		c0,0,0-0.1,0-0.1c-0.2-2-2.7-1.8-4.2-2.4c-1.7-0.6-3.2-1.5-4.6-2.6c-2.8-2.3-4.6-5.6-5.8-9c-1.1-3.2-3.7-0.9-4.1,1.1
		c-1.2,5.8-4.5,9.2-10.2,10.5c-1.3,0.3-3.1,0.7-3.1,2.5c0,0,0,0,0,0c0,0,0,0,0,0c0,1.8,1.8,2.2,3.1,2.5c5.7,1.3,9.1,4.6,10.2,10.5
		C303.8,345.7,306.4,347.9,307.5,344.8z"/>
	<path class="st18" d="M352.9,344.9c1.2-3.4,3-6.7,5.8-9c1.4-1.1,2.9-2,4.6-2.6c1.5-0.6,4-0.4,4.2-2.4c0,0,0-0.1,0-0.1s0-0.1,0-0.1
		c-0.2-2-2.7-1.8-4.2-2.4c-1.7-0.6-3.2-1.5-4.6-2.6c-2.8-2.3-4.6-5.6-5.8-9c-1.1-3.2-3.7-0.9-4.1,1.1c-1.2,5.8-4.5,9.2-10.2,10.5
		c-1.3,0.3-3.1,0.7-3.1,2.5c0,0,0,0,0,0c0,0,0,0,0,0c0,1.8,1.8,2.2,3.1,2.5c5.7,1.3,9.1,4.6,10.2,10.5
		C349.2,345.8,351.8,348.1,352.9,344.9z"/>
</g>
</svg>
